<svg width="48" height="48" viewBox="0 0 48 48" fill="none" xmlns="http://www.w3.org/2000/svg">
<g clip-path="url(#clip0_907_5412)">
<rect width="48" height="48" fill="#FF9524"/>
<path d="M14.1001 -1.16242C22.1439 -2.81242 33.6939 -1.78117 40.9126 0.900082C46.4814 2.96258 47.7189 9.35633 47.1001 16.3688L46.0689 34.725C45.6564 43.3875 38.8501 47.925 29.5689 49.3688L10.5939 50.8125C6.88135 50.8125 7.5001 48.5438 12.0376 44.0063C2.34385 42.7688 -1.5749 39.0563 -0.956149 31.425L0.900102 12.0376C1.51885 3.78758 5.8501 -0.131168 14.1001 -1.16242Z" fill="#FF9524"/>
<path d="M14.1001 -1.16242C22.1439 -2.81242 33.6939 -1.78117 40.9126 0.900082C46.4814 2.96258 47.7189 9.35633 47.1001 16.3688L46.0689 34.725C45.6564 43.3875 38.8501 47.925 29.5689 49.3688L10.5939 50.8125C6.88135 50.8125 7.5001 48.5438 12.0376 44.0063C2.34385 42.7688 -1.5749 39.0563 -0.956149 31.425L0.900102 12.0376C1.51885 3.78758 5.8501 -0.131168 14.1001 -1.16242Z" fill="#FF9524"/>
<path d="M14.1001 -1.16242C22.1439 -2.81242 33.6939 -1.78117 40.9126 0.900082C46.4814 2.96258 47.7189 9.35633 47.1001 16.3688L46.0689 34.725C45.6564 43.3875 38.8501 47.925 29.5689 49.3688L10.5939 50.8125C6.88135 50.8125 7.5001 48.5438 12.0376 44.0063C2.34385 42.7688 -1.5749 39.0563 -0.956149 31.425L0.900102 12.0376C1.51885 3.78758 5.8501 -0.131168 14.1001 -1.16242Z" fill="#FF9524"/>
<path d="M13.0687 7.91259C20.4937 6.26259 31.8375 6.88134 37.2 9.35634C40.0875 11.0063 40.5 14.3063 40.0875 20.0813L39.2625 30.8063C38.85 36.375 35.3438 38.2313 29.1563 38.4375L13.2749 37.6125C8.11869 37.2 6.05619 34.1063 6.46869 28.95L7.49994 16.3688C7.91244 11.0063 8.94369 8.73759 13.0687 7.91259Z" fill="#252525"/>
<path d="M16.9877 18.2251H14.1002C13.1889 18.2251 12.4502 18.9638 12.4502 19.8751V23.1751C12.4502 24.0864 13.1889 24.8251 14.1002 24.8251H16.9877C17.8989 24.8251 18.6377 24.0864 18.6377 23.1751V19.8751C18.6377 18.9638 17.8989 18.2251 16.9877 18.2251Z" fill="white"/>
<path d="M16.7812 21.3188C16.7812 20.7493 16.3196 20.2876 15.75 20.2876C15.1804 20.2876 14.7188 20.7493 14.7188 21.3188V22.1438C14.7188 22.7134 15.1804 23.1751 15.75 23.1751C16.3196 23.1751 16.7812 22.7134 16.7812 22.1438V21.3188Z" fill="#252525"/>
<path d="M31.4252 19.0503H28.5377C27.6264 19.0503 26.8877 19.789 26.8877 20.7003V24.0003C26.8877 24.9115 27.6264 25.6503 28.5377 25.6503H31.4252C32.3364 25.6503 33.0752 24.9115 33.0752 24.0003V20.7003C33.0752 19.789 32.3364 19.0503 31.4252 19.0503Z" fill="white"/>
<path d="M31.0127 22.144C31.0127 21.5745 30.5511 21.1128 29.9814 21.1128C29.4118 21.1128 28.9502 21.5745 28.9502 22.144V22.969C28.9502 23.5386 29.4118 24.0003 29.9814 24.0003C30.5511 24.0003 31.0127 23.5386 31.0127 22.969V22.144Z" fill="#252525"/>
<path d="M24.2061 33.8999C25.3452 33.8999 26.2686 32.9763 26.2686 31.8374C26.2686 30.6982 25.3452 29.7749 24.2061 29.7749C23.067 29.7749 22.1436 30.6982 22.1436 31.8374C22.1436 32.9763 23.067 33.8999 24.2061 33.8999Z" fill="white"/>
</g>
<defs>
<clipPath id="clip0_907_5412">
<rect width="48" height="48" fill="white"/>
</clipPath>
</defs>
</svg>
