<svg width="48" height="48" viewBox="0 0 48 48" fill="none" xmlns="http://www.w3.org/2000/svg">
<g clip-path="url(#clip0_907_5411)">
<rect width="48" height="48" fill="#FF9524"/>
<path d="M14.1001 -1.16242C22.1439 -2.81242 33.6939 -1.78117 40.9126 0.900082C46.4814 2.96258 47.7189 9.35633 47.1001 16.3688L46.0689 34.725C45.6564 43.3875 38.8501 47.925 29.5689 49.3688L10.5939 50.8125C6.88135 50.8125 7.5001 48.5438 12.0376 44.0063C2.34385 42.7688 -1.5749 39.0563 -0.956149 31.425L0.900102 12.0376C1.51885 3.78758 5.8501 -0.131168 14.1001 -1.16242Z" fill="#FF9524"/>
<path d="M14.1001 -1.16242C22.1439 -2.81242 33.6939 -1.78117 40.9126 0.900082C46.4814 2.96258 47.7189 9.35633 47.1001 16.3688L46.0689 34.725C45.6564 43.3875 38.8501 47.925 29.5689 49.3688L10.5939 50.8125C6.88135 50.8125 7.5001 48.5438 12.0376 44.0063C2.34385 42.7688 -1.5749 39.0563 -0.956149 31.425L0.900102 12.0376C1.51885 3.78758 5.8501 -0.131168 14.1001 -1.16242Z" fill="#FF9524"/>
<path d="M14.1001 -1.16242C22.1439 -2.81242 33.6939 -1.78117 40.9126 0.900082C46.4814 2.96258 47.7189 9.35633 47.1001 16.3688L46.0689 34.725C45.6564 43.3875 38.8501 47.925 29.5689 49.3688L10.5939 50.8125C6.88135 50.8125 7.5001 48.5438 12.0376 44.0063C2.34385 42.7688 -1.5749 39.0563 -0.956149 31.425L0.900102 12.0376C1.51885 3.78758 5.8501 -0.131168 14.1001 -1.16242Z" fill="#FF9524"/>
<path d="M13.0687 7.91259C20.4937 6.26259 31.8375 6.88134 37.2 9.35634C40.0875 11.0063 40.5 14.3063 40.0875 20.0813L39.2625 30.8063C38.85 36.375 35.3438 38.2313 29.1563 38.4375L13.2749 37.6125C8.11869 37.2 6.05619 34.1063 6.46869 28.95L7.49994 16.3688C7.91244 11.0063 8.94369 8.73759 13.0687 7.91259Z" fill="#252525"/>
<path d="M16.9877 18.2251H14.1002C13.1889 18.2251 12.4502 18.9638 12.4502 19.8751V23.1751C12.4502 24.0864 13.1889 24.8251 14.1002 24.8251H16.9877C17.8989 24.8251 18.6377 24.0864 18.6377 23.1751V19.8751C18.6377 18.9638 17.8989 18.2251 16.9877 18.2251Z" fill="white"/>
<path d="M16.7812 21.3188C16.7812 20.7493 16.3196 20.2876 15.75 20.2876C15.1804 20.2876 14.7188 20.7493 14.7188 21.3188V22.1438C14.7188 22.7134 15.1804 23.1751 15.75 23.1751C16.3196 23.1751 16.7812 22.7134 16.7812 22.1438V21.3188Z" fill="#252525"/>
<path d="M31.2926 19.6272C31.8851 19.4401 32.5169 19.7687 32.704 20.3611C32.8911 20.9536 32.5625 21.5854 31.9701 21.7725L30.97 22.0882L32.0679 22.5507C32.6405 22.7918 32.9092 23.4514 32.6681 24.024C32.427 24.5965 31.7674 24.8652 31.1948 24.6242L27.276 22.974C26.8413 22.791 26.5668 22.3564 26.5886 21.8853C26.6105 21.4141 26.924 21.0067 27.3738 20.8647L31.2926 19.6272Z" fill="white"/>
<path d="M27.8387 12.5654C30.0537 12.4072 32.0085 13.0496 33.6216 14.5012C34.0834 14.9169 34.1207 15.6284 33.7051 16.0902C33.2894 16.552 32.5782 16.5893 32.1164 16.1737C30.9793 15.1504 29.6338 14.6932 27.9991 14.8099C27.3794 14.8542 26.8411 14.3875 26.7968 13.7677C26.7526 13.148 27.219 12.6097 27.8387 12.5654Z" fill="white"/>
<path d="M20.9062 30.3937C22.0062 30.1188 23.175 29.9812 24.4125 29.9812L24.6188 31.8375L26.0625 31.6312V29.775C27.1625 29.3625 27.9188 29.5001 28.3313 30.1875C28.125 34.9312 21.7313 36.7875 20.9062 30.3937Z" fill="white"/>
</g>
<defs>
<clipPath id="clip0_907_5411">
<rect width="48" height="48" fill="white"/>
</clipPath>
</defs>
</svg>
