<svg preserveAspectRatio="none" overflow="visible" style="display: block;" width="20.4756" height="22.3871" viewBox="0 0 20.4756 22.3871" fill="none" xmlns="http://www.w3.org/2000/svg">
<g id="Character-walgadak">
<path id="Sticker-outer-line" d="M6.41418 0.337108C9.82668 -0.362892 14.7267 0.0746085 17.7892 1.21211C20.1517 2.08711 20.6767 4.79961 20.4142 7.77461L19.9767 15.5621C19.8017 19.2371 16.9142 21.1621 12.9767 21.7746L4.92668 22.3871C3.35168 22.3871 3.61418 21.4246 5.53918 19.4996C1.42668 18.9746 -0.235818 17.3996 0.0266825 14.1621L0.814182 5.93711C1.07668 2.43711 2.91418 0.774608 6.41418 0.337108Z" fill="#FF9524"/>
<path id="Sticker-white-keyline" d="M6.41418 0.337108C9.82668 -0.362892 14.7267 0.0746085 17.7892 1.21211C20.1517 2.08711 20.6767 4.79961 20.4142 7.77461L19.9767 15.5621C19.8017 19.2371 16.9142 21.1621 12.9767 21.7746L4.92668 22.3871C3.35168 22.3871 3.61418 21.4246 5.53918 19.4996C1.42668 18.9746 -0.235818 17.3996 0.0266825 14.1621L0.814182 5.93711C1.07668 2.43711 2.91418 0.774608 6.41418 0.337108Z" fill="#FF9524"/>
<path id="Body" d="M6.41418 0.337108C9.82668 -0.362892 14.7267 0.0746085 17.7892 1.21211C20.1517 2.08711 20.6767 4.79961 20.4142 7.77461L19.9767 15.5621C19.8017 19.2371 16.9142 21.1621 12.9767 21.7746L4.92668 22.3871C3.35168 22.3871 3.61418 21.4246 5.53918 19.4996C1.42668 18.9746 -0.235818 17.3996 0.0266825 14.1621L0.814182 5.93711C1.07668 2.43711 2.91418 0.774608 6.41418 0.337108Z" fill="#FF9524"/>
<path id="Face" d="M5.97668 4.18711C9.12668 3.48711 13.9392 3.74961 16.2142 4.79961C17.4392 5.49961 17.6142 6.89961 17.4392 9.34961L17.0892 13.8996C16.9142 16.2621 15.4267 17.0496 12.8017 17.1371L6.06418 16.7871C3.87668 16.6121 3.00168 15.2996 3.17668 13.1121L3.61418 7.77461C3.78918 5.49961 4.22668 4.53711 5.97668 4.18711Z" fill="#252525"/>
<g id="Expression">
<path id="Eye-left" d="M7.90168 9.43711H6.23918C5.99756 9.43711 5.80168 9.63298 5.80168 9.87461V10.8371C5.80168 11.0787 5.99756 11.2746 6.23918 11.2746H7.90168C8.14331 11.2746 8.33918 11.0787 8.33918 10.8371V9.87461C8.33918 9.63298 8.14331 9.43711 7.90168 9.43711Z" fill="white"/>
<path id="Pupil-left" d="M7.20168 9.87461H7.11418C6.92088 9.87461 6.76418 10.0313 6.76418 10.2246V10.3996C6.76418 10.5929 6.92088 10.7496 7.11418 10.7496H7.20168C7.39498 10.7496 7.55168 10.5929 7.55168 10.3996V10.2246C7.55168 10.0313 7.39498 9.87461 7.20168 9.87461Z" fill="#252525"/>
<path id="Eye-right" d="M13.8517 9.69961H12.1892C11.9476 9.69961 11.7517 9.89548 11.7517 10.1371V11.0996C11.7517 11.3412 11.9476 11.5371 12.1892 11.5371H13.8517C14.0933 11.5371 14.2892 11.3412 14.2892 11.0996V10.1371C14.2892 9.89548 14.0933 9.69961 13.8517 9.69961Z" fill="white"/>
<path id="Pupil-right" d="M13.1517 10.1371H13.0642C12.8709 10.1371 12.7142 10.2938 12.7142 10.4871V10.6621C12.7142 10.8554 12.8709 11.0121 13.0642 11.0121H13.1517C13.345 11.0121 13.5017 10.8554 13.5017 10.6621V10.4871C13.5017 10.2938 13.345 10.1371 13.1517 10.1371Z" fill="#252525"/>
<path id="Brow (Stroke)" d="M14.1237 6.85965C14.3391 6.81657 14.5486 6.95622 14.5916 7.17162C14.6347 7.38701 14.4951 7.59649 14.2797 7.63957L12.5297 7.9896C12.3143 8.03267 12.1048 7.89301 12.0617 7.67763C12.0186 7.46224 12.1583 7.25276 12.3737 7.20968L14.1237 6.85965Z" fill="white"/>
<path id="Mouth (Stroke)" d="M12.0142 13.8519C12.2339 13.8519 12.412 14.03 12.412 14.2496C12.412 14.4692 12.2339 14.6473 12.0142 14.6473H9.56418C9.34452 14.6473 9.16646 14.4693 9.16646 14.2496C9.16646 14.0299 9.34452 13.8519 9.56418 13.8519H12.0142Z" fill="white"/>
</g>
</g>
</svg>
