<svg preserveAspectRatio="none" overflow="visible" style="display: block;" width="20" height="20" viewBox="0 0 20 20" fill="none" xmlns="http://www.w3.org/2000/svg">
<g id="mdi:achievement-variant-outline">
<path id="Vector" d="M14.1667 3.33333V1.66667H5.83333V3.33333H1.66667V9.16667C1.66667 10.0833 2.41667 10.8333 3.33333 10.8333H5.91667C6.08098 11.6336 6.47649 12.3681 7.05418 12.9458C7.63188 13.5235 8.36638 13.919 9.16667 14.0833V15.9C6.66667 16.2833 6.66667 18.3333 6.66667 18.3333H13.3333C13.3333 18.3333 13.3333 16.2833 10.8333 15.9V14.0833C11.6336 13.919 12.3681 13.5235 12.9458 12.9458C13.5235 12.3681 13.919 11.6336 14.0833 10.8333H16.6667C17.5833 10.8333 18.3333 10.0833 18.3333 9.16667V3.33333H14.1667ZM3.33333 9.16667V5H5.83333V9.16667H3.33333ZM12.5 10C12.5 11.375 11.375 12.5 10 12.5C8.625 12.5 7.5 11.375 7.5 10V3.33333H12.5V10ZM16.6667 9.16667H14.1667V5H16.6667V9.16667Z" fill="#939094"/>
</g>
</svg>
